<svg xmlns="http://www.w3.org/2000/svg" width="667" height="276" viewBox="0 0 667 276" fill="none">
<path fill-rule="evenodd" clip-rule="evenodd" d="M603.906 1.7088C596.051 10.2512 603.382 30.329 620.033 24.7787C610.116 41.3064 620.033 57.8342 639.866 51.2231C630.525 66.7926 656.383 79.4288 664.939 64.2615C665.725 68.82 666.118 73.5469 666.118 78.4422C666.118 88.1261 664.631 96.907 661.662 104.783C658.694 112.66 655.208 119.309 651.205 124.732C647.332 130.156 643.781 134.158 640.553 136.741C654.885 152.623 662.052 171.282 662.052 192.716L662.436 274.063C662.436 275.354 661.795 276 660.499 276H615.567C614.535 276 614.018 275.613 614.018 274.838V192.716C614.018 183.161 610.661 174.897 603.946 167.924C597.232 160.952 588.968 157.465 579.155 157.465H553.007L552.62 274.063C552.62 275.354 552.103 276 551.071 276H506.136C505.103 276 504.586 275.354 504.586 274.063L505.361 1.54947C505.361 0.516491 505.877 0 506.911 0H587.096C592.889 0 598.492 0.569602 603.906 1.7088ZM1.54947 276H129.769C130.801 276 131.318 275.484 131.318 274.45V229.129C131.318 227.837 130.801 227.192 129.769 227.192H48.0337V157.853H129.769C130.801 157.853 131.318 157.336 131.318 156.303L130.931 111.369C130.931 110.335 130.414 109.819 129.381 109.819H48.0337V47.84H129.381C130.414 47.84 130.931 47.3235 130.931 46.2906V1.93684C130.931 0.645612 130.414 0 129.381 0H1.93684C0.903862 0 0.38737 0.516491 0.38737 1.54947L0 274.063C0 275.354 0.516492 276 1.54947 276ZM205.706 1.54947L156.51 274.063C156.51 275.354 157.026 276 158.059 276H202.219C203.382 276 204.027 275.354 204.156 274.063L208.417 245.011H262.455L266.716 274.063C266.846 275.354 267.556 276 268.847 276H312.813C313.975 276 314.492 275.354 314.363 274.063L267.103 1.54947C266.845 0.516491 266.2 0 265.167 0H207.643C206.609 0 205.964 0.516491 205.706 1.54947ZM216.358 202.594L234.177 91.2254L235.92 76.5051L238.245 91.2254L254.514 202.594H216.358ZM382.358 276H427.1C428.132 276 428.649 275.354 428.649 274.063L428.262 47.84H480.363C481.396 47.84 481.912 47.1944 481.912 45.9031V1.54947C481.912 0.516491 481.202 0 479.781 0H329.096C328.062 0 327.546 0.516491 327.546 1.54947L327.159 45.9031C327.159 47.1944 327.804 47.84 329.096 47.84H380.615V274.063C380.615 275.354 381.196 276 382.358 276ZM553.007 47.4527H587.096C595.618 47.4527 602.978 50.5516 609.176 56.7495C615.374 62.8183 618.473 70.0494 618.473 78.4422C618.473 87.2224 615.245 94.6473 608.788 100.716C602.461 106.785 595.23 109.819 587.096 109.819H553.007V47.4527Z" fill="#0F0F0F"/>
</svg>